<svg width="60" height="60" viewBox="0 0 60 60" fill="none" xmlns="http://www.w3.org/2000/svg">
<path d="M35.6751 30.2485C37.6221 30.6628 39.0788 31.3256 40.0454 32.2369C41.3848 33.5073 42.0545 35.0607 42.0545 36.8971C42.0545 38.2918 41.6126 39.6311 40.7289 40.9154C39.8452 42.1857 38.63 43.1178 37.0835 43.7115C35.5508 44.2914 33.2034 44.5814 30.0414 44.5814H16.7856V43.8151H17.8419C19.0156 43.8151 19.8579 43.4422 20.3688 42.6965C20.6864 42.2133 20.8452 41.1846 20.8452 39.6105V21.4666C20.8452 19.7267 20.6449 18.629 20.2445 18.1733C19.706 17.5658 18.9051 17.262 17.8419 17.262H16.7856V16.4956H28.9229C31.1875 16.4956 33.0032 16.6613 34.3703 16.9927C36.4415 17.4898 38.0225 18.3735 39.1133 19.6439C40.2042 20.9004 40.7496 22.3503 40.7496 23.9935C40.7496 25.4019 40.3215 26.6654 39.4654 27.7838C38.6094 28.8884 37.3459 29.71 35.6751 30.2485ZM24.8219 29.1301C25.3328 29.2267 25.9127 29.3027 26.5617 29.3579C27.2245 29.3994 27.9494 29.4201 28.7366 29.4201C30.7525 29.4201 32.2645 29.206 33.2725 28.7779C34.2943 28.3361 35.0744 27.6664 35.613 26.7689C36.1515 25.8713 36.4208 24.891 36.4208 23.8278C36.4208 22.1846 35.7511 20.7831 34.4116 19.6232C33.0723 18.4633 31.1184 17.8834 28.5501 17.8834C27.1693 17.8834 25.9266 18.0352 24.8219 18.339V29.1301ZM24.8219 42.5516C26.4237 42.9244 28.0047 43.1108 29.565 43.1108C32.0643 43.1108 33.9698 42.5516 35.2816 41.4331C36.5933 40.3009 37.2492 38.9062 37.2492 37.2493C37.2492 36.1585 36.9524 35.109 36.3587 34.101C35.7649 33.093 34.7983 32.2991 33.4589 31.7191C32.1195 31.1392 30.4625 30.8492 28.488 30.8492C27.6319 30.8492 26.9 30.863 26.2925 30.8907C25.6849 30.9182 25.1947 30.9665 24.8219 31.0356V42.5516Z" fill="white"/>
<path d="M58.5 1.5H1.5V58.5H58.5V1.5Z" stroke="white" stroke-width="3"/>
</svg>
