<svg width="70" height="70" viewBox="0 0 70 70" fill="none" xmlns="http://www.w3.org/2000/svg">
<circle cx="35" cy="35" r="33.5" stroke="white" stroke-width="3"/>
<path d="M52.3957 33.1491L46.9398 27.6931V21.3905C46.9398 20.2509 46.0163 19.3274 44.875 19.3274C43.7364 19.3274 42.8129 20.2509 42.8129 21.3905V23.5663L38.7505 19.5038C36.742 17.4964 33.2499 17.4999 31.246 19.5074L17.604 33.1491C16.7987 33.956 16.7987 35.2616 17.604 36.0673C18.4097 36.874 19.7179 36.874 20.5232 36.0673L34.1639 22.4253C34.6083 21.9832 35.3915 21.9832 35.8336 22.424L49.4765 36.0673C49.8811 36.4707 50.4085 36.6714 50.9358 36.6714C51.4642 36.6714 51.9925 36.4705 52.3958 36.0673C53.2014 35.2617 53.2014 33.9561 52.3957 33.1491Z" fill="white"/>
<path d="M35.7166 26.3418C35.3203 25.9456 34.6785 25.9456 34.2834 26.3418L22.2839 38.3377C22.0944 38.5271 21.987 38.7857 21.987 39.0555V47.8049C21.987 49.858 23.6517 51.5226 25.7047 51.5226H31.6457V42.322H38.353V51.5226H44.294C46.347 51.5226 48.0117 49.858 48.0117 47.805V39.0555C48.0117 38.7857 47.9052 38.5271 47.7148 38.3377L35.7166 26.3418Z" fill="white"/>
</svg>
