<svg width="70" height="70" viewBox="0 0 70 70" fill="none" xmlns="http://www.w3.org/2000/svg">
<circle cx="35" cy="35" r="33.5" stroke="white" stroke-width="3"/>
<path d="M42.9168 35.0003C42.9168 39.3725 39.3723 42.917 35.0001 42.917C30.6278 42.917 27.0833 39.3725 27.0833 35.0003C27.0833 30.628 30.6278 27.0835 35.0001 27.0835C39.3723 27.0835 42.9168 30.628 42.9168 35.0003Z" fill="white"/>
<path d="M52.4168 33.4168H50.7526C50.0084 25.9482 44.0518 19.9916 36.5832 19.2474V17.5832C36.5832 16.7094 35.8755 16 35 16C34.1245 16 33.4168 16.7094 33.4168 17.5832V19.2474C25.9482 19.9916 19.9916 25.9482 19.2474 33.4168H17.5832C16.7077 33.4168 16 34.1259 16 35C16 35.8741 16.7077 36.5832 17.5832 36.5832H19.2474C19.993 44.0518 25.9482 50.0084 33.4168 50.7526V52.4168C33.4168 53.2906 34.1245 54 35 54C35.8755 54 36.5832 53.2906 36.5832 52.4168V50.7526C44.0518 50.007 50.0084 44.0518 50.7526 36.5832H52.4168C53.2923 36.5832 54 35.8741 54 35C54 34.1259 53.2923 33.4168 52.4168 33.4168ZM36.5612 47.5607C36.5041 46.7387 35.8376 46.0832 35 46.0832C34.1624 46.0832 33.4959 46.7387 33.4388 47.5607C27.7039 46.8512 23.1502 42.2975 22.4411 36.5627C23.2627 36.5041 23.9168 35.8361 23.9168 35C23.9168 34.1639 23.2627 33.4959 22.4393 33.4388C23.1488 27.7039 27.7025 23.1502 33.4373 22.4411C33.4959 23.2613 34.1624 23.9168 35 23.9168C35.8376 23.9168 36.5041 23.2613 36.5612 22.4393C42.2961 23.1488 46.8498 27.7025 47.5589 33.4373C46.7373 33.4959 46.0832 34.1639 46.0832 35C46.0832 35.8361 46.7373 36.5041 47.5607 36.5612C46.8498 42.2975 42.2975 46.8498 36.5612 47.5607Z" fill="white"/>
</svg>
