<svg width="70" height="70" viewBox="0 0 70 70" fill="none" xmlns="http://www.w3.org/2000/svg">
<circle cx="35" cy="35" r="33.5" stroke="white" stroke-width="3"/>
<path d="M49.5416 24.4376H42.1458V22.9584C42.1458 21.3268 40.8191 20 39.1875 20H30.3125C28.6809 20 27.3541 21.3267 27.3541 22.9584V24.4375H19.9584C18.3267 24.4376 17 25.7643 17 27.3959V31.8334C17 33.465 18.3267 34.7918 19.9584 34.7918H31.7917V34.0522C31.7917 33.6434 32.1225 33.3126 32.5313 33.3126H36.9688C37.3776 33.3126 37.7084 33.6434 37.7084 34.0522V34.7918H49.5417C51.1732 34.7918 52.4999 33.465 52.4999 31.8334V27.3959C52.4999 25.7643 51.1732 24.4376 49.5416 24.4376ZM39.1875 24.4376H30.3125V22.9584H39.1875V24.4376Z" fill="white"/>
<path d="M52.0897 35.5896C51.8376 35.4646 51.5364 35.4936 51.3139 35.6625C50.7882 36.0605 50.1757 36.2707 49.5415 36.2707H37.7083V38.4894C37.7083 38.8982 37.3775 39.229 36.9687 39.229H32.5312C32.1224 39.229 31.7916 38.8982 31.7916 38.4894V36.2707H19.9584C19.3242 36.2707 18.7118 36.0605 18.1859 35.6625C17.9627 35.4921 17.6623 35.4632 17.4102 35.5896C17.1589 35.7146 17 35.9709 17 36.252V46.6249C17 48.2565 18.3267 49.5833 19.9584 49.5833H49.5417C51.1732 49.5833 52.5 48.2566 52.5 46.6249V36.252C52.4999 35.9709 52.341 35.7146 52.0897 35.5896Z" fill="white"/>
</svg>
