<svg width="70" height="70" viewBox="0 0 70 70" fill="none" xmlns="http://www.w3.org/2000/svg">
<circle cx="35" cy="35" r="33.5" stroke="white" stroke-width="3"/>
<path d="M28.0204 31.6875C28.3575 33.8785 30.0505 36.6671 32.8314 37.6477C33.9729 38.046 35.2216 38.0537 36.3631 37.64C39.098 36.6518 40.8447 33.8709 41.1894 31.6875C41.5571 31.6569 42.0398 31.1436 42.5607 29.2973C43.2732 26.7769 42.5147 26.4015 41.8712 26.4628C41.9938 26.118 42.0857 25.7656 42.147 25.4285C43.2349 18.8938 40.0173 18.6716 40.0173 18.6716C40.0173 18.6716 39.481 17.6451 38.0791 16.8713C37.1368 16.3121 35.8268 15.8831 34.1031 16.0286C33.5439 16.0516 33.0153 16.1665 32.5173 16.3274C31.8815 16.5419 31.2992 16.856 30.7706 17.2237C30.1271 17.6298 29.5143 18.1354 28.978 18.7099C28.1276 19.5833 27.3692 20.7094 27.0398 22.1114C26.764 23.1609 26.8253 24.2564 27.0551 25.4362C27.1164 25.7809 27.2083 26.1257 27.3309 26.4704C26.6874 26.4091 25.929 26.7845 26.6414 29.305C27.17 31.1436 27.6527 31.6569 28.0204 31.6875Z" fill="white"/>
<path d="M47.2415 40.26C43.3268 39.2641 40.1475 37.0271 40.1475 37.0271L37.6654 44.8795L37.1981 46.3581L37.1904 46.3351L36.7844 47.5915L35.4744 43.8759C38.6919 39.3867 34.8232 39.4326 34.6087 39.4403C34.3942 39.4326 30.5255 39.3867 33.743 43.8759L32.433 47.5915L32.027 46.3351L32.0193 46.3581L31.552 44.8795L29.0622 37.0271C29.0622 37.0271 25.883 39.2641 21.9683 40.26C19.0495 41.0031 18.9116 44.3739 19.0265 46.0363C19.0265 46.0363 19.195 48.2963 19.3636 49.2922C19.3636 49.2922 25.0633 52.9924 34.6087 53.0001C44.1542 53.0001 49.8538 49.2922 49.8538 49.2922C50.0224 48.2963 50.1909 46.0363 50.1909 46.0363C50.2982 44.3739 50.1603 41.0031 47.2415 40.26Z" fill="white"/>
</svg>
