<svg width="70" height="70" viewBox="0 0 70 70" fill="none" xmlns="http://www.w3.org/2000/svg">
<circle cx="35" cy="35" r="33.5" stroke="white" stroke-width="3"/>
<path d="M31.412 17C27.591 17.0041 23.9277 18.5238 21.2258 21.2256C18.524 23.9275 17.0043 27.5908 17.0002 31.4118C16.9971 33.5609 17.481 35.6828 18.4157 37.6181L17.0208 44.5883C16.9903 44.7379 16.9934 44.8924 17.0299 45.0406C17.0665 45.1888 17.1355 45.327 17.2321 45.4453C17.3287 45.5635 17.4503 45.6588 17.5883 45.7242C17.7262 45.7897 17.877 45.8236 18.0296 45.8236C18.0988 45.8241 18.1678 45.8172 18.2355 45.803L25.2098 44.4081C27.1438 45.3422 29.2642 45.8261 31.412 45.8236C35.2342 45.8236 38.8999 44.3052 41.6026 41.6025C44.3053 38.8997 45.8237 35.234 45.8237 31.4118C45.8237 27.5895 44.3053 23.9238 41.6026 21.2211C38.8999 18.5184 35.2342 17 31.412 17ZM24.2061 33.4706C23.7989 33.4706 23.4008 33.3499 23.0623 33.1236C22.7237 32.8974 22.4598 32.5759 22.304 32.1997C22.1482 31.8235 22.1074 31.4095 22.1868 31.0101C22.2663 30.6108 22.4623 30.2439 22.7503 29.956C23.0382 29.668 23.4051 29.472 23.8044 29.3925C24.2038 29.3131 24.6178 29.3538 24.994 29.5097C25.3702 29.6655 25.6917 29.9294 25.9179 30.268C26.1442 30.6065 26.2649 31.0046 26.2649 31.4118C26.2649 31.9578 26.048 32.4815 25.6619 32.8676C25.2758 33.2537 24.7521 33.4706 24.2061 33.4706ZM31.412 33.4706C31.0048 33.4706 30.6067 33.3499 30.2681 33.1236C29.9296 32.8974 29.6657 32.5759 29.5099 32.1997C29.354 31.8235 29.3133 31.4095 29.3927 31.0101C29.4721 30.6108 29.6682 30.2439 29.9562 29.956C30.2441 29.668 30.6109 29.472 31.0103 29.3925C31.4097 29.3131 31.8236 29.3538 32.1998 29.5097C32.576 29.6655 32.8976 29.9294 33.1238 30.268C33.35 30.6065 33.4708 31.0046 33.4708 31.4118C33.4708 31.9578 33.2539 32.4815 32.8678 32.8676C32.4817 33.2537 31.958 33.4706 31.412 33.4706ZM38.6178 33.4706C38.2106 33.4706 37.8126 33.3499 37.474 33.1236C37.1355 32.8974 36.8716 32.5759 36.7157 32.1997C36.5599 31.8235 36.5191 31.4095 36.5986 31.0101C36.678 30.6108 36.8741 30.2439 37.162 29.956C37.45 29.668 37.8168 29.472 38.2162 29.3925C38.6156 29.3131 39.0295 29.3538 39.4057 29.5097C39.7819 29.6655 40.1035 29.9294 40.3297 30.268C40.5559 30.6065 40.6767 31.0046 40.6767 31.4118C40.6767 31.9578 40.4598 32.4815 40.0737 32.8676C39.6875 33.2537 39.1639 33.4706 38.6178 33.4706Z" fill="white"/>
<path d="M51.0357 46.0438C51.6731 44.6867 52.0025 43.2053 52.0002 41.7059C51.9989 40.0831 51.6133 38.4837 50.8748 37.0387C50.1364 35.5937 49.0662 34.3441 47.7518 33.3923C47.304 37.0449 45.6472 40.4428 43.0451 43.0449C40.443 45.647 37.0452 47.3038 33.3926 47.7516C34.3444 49.066 35.5939 50.1362 37.0389 50.8746C38.484 51.613 40.0833 51.9987 41.7061 52C43.2055 52.0023 44.6869 51.6729 46.044 51.0354L50.769 51.9794C50.8354 51.9934 50.903 52.0003 50.9708 52C51.1235 52 51.2742 51.9661 51.4122 51.9007C51.5501 51.8353 51.6718 51.74 51.7683 51.6217C51.8649 51.5035 51.9339 51.3652 51.9705 51.217C52.007 51.0688 52.0102 50.9143 51.9796 50.7647L51.0357 46.0438Z" fill="white"/>
</svg>
