<svg width="70" height="70" viewBox="0 0 70 70" fill="none" xmlns="http://www.w3.org/2000/svg">
<circle cx="35" cy="35" r="33.5" stroke="white" stroke-width="3"/>
<path d="M26.7989 22.355C28.7628 19.7304 31.7579 18.157 35.7046 17.6759C35.8254 17.5556 35.9914 17.4003 36.2002 17.2275C31.7956 17.016 27.3073 18.4759 24.5875 22.1142C23.5522 23.4993 22.667 26.5504 22.0277 30.9377C21.8253 32.3266 22.7529 33.7837 24.1099 34.1885C23.8815 30.2767 24.2828 25.7177 26.7989 22.355Z" fill="white"/>
<path d="M23.3918 49.0085H46.0686V52.0001H23.3918V49.0085Z" fill="white"/>
<path d="M48.1809 29.8619C45.8919 26.6022 42.9751 23.8944 40.3819 20.8917C40.1509 20.6242 40.118 20.2388 40.3003 19.9361L42.0472 17.0353C38.7014 16.6925 36.7424 18.9561 36.721 18.9815C36.585 19.1426 36.3918 19.245 36.182 19.2673C25.0904 20.449 24.9408 31.6094 26.5709 40.2723C27.122 43.2792 26.7213 45.757 26.2522 47.3729H43.2559C43.7765 43.8315 42.4379 40.4022 39.7521 38.1521C37.5015 36.2668 36.3386 34.2271 36.1306 31.2503C33.6975 29.3988 34.0334 26.1911 34.0497 26.0494C34.1012 25.6007 34.5066 25.2775 34.9564 25.33C35.4058 25.3814 35.7282 25.7868 35.6768 26.2356C35.3468 29.3204 37.8469 30.9116 40.6041 30.8267C40.7676 30.8223 40.929 30.8657 41.0674 30.9532L45.2095 33.5737C45.6557 33.856 46.2149 33.8672 46.6688 33.6027C47.6298 33.0427 48.775 32.1757 48.7737 31.2254C48.7729 30.7423 48.5275 30.3555 48.1809 29.8619ZM41.3273 25.3244C41.0159 25.5734 40.7071 25.567 40.4011 25.3051L39.7814 24.6596C39.531 24.3988 39.5397 23.9848 39.8009 23.7346C40.0621 23.4846 40.4767 23.4931 40.7271 23.754L41.3468 24.3994C41.5972 24.6602 41.5885 25.0743 41.3273 25.3244Z" fill="white"/>
</svg>
