<svg width="28" height="23" viewBox="0 0 28 23" fill="none" xmlns="http://www.w3.org/2000/svg">
<path d="M1.5 9.5459C0.671573 9.5459 0 10.2175 0 11.0459C0 11.8743 0.671573 12.5459 1.5 12.5459V11.0459V9.5459ZM27.5607 12.1066C28.1464 11.5208 28.1464 10.571 27.5607 9.98524L18.0147 0.439297C17.4289 -0.14649 16.4792 -0.14649 15.8934 0.439297C15.3076 1.02508 15.3076 1.97483 15.8934 2.56062L24.3787 11.0459L15.8934 19.5312C15.3076 20.117 15.3076 21.0667 15.8934 21.6525C16.4792 22.2383 17.4289 22.2383 18.0147 21.6525L27.5607 12.1066ZM1.5 11.0459V12.5459H26.5V11.0459V9.5459H1.5V11.0459Z" fill="black"/>
</svg>
